<svg xmlns="http://www.w3.org/2000/svg" xmlns:xlink="http://www.w3.org/1999/xlink" viewBox="0 0 983.56 984"><defs><style>.cls-1{fill:url(#linear-gradient);}.cls-2{fill:url(#linear-gradient-2);}.cls-3{fill:url(#linear-gradient-3);}.cls-4{fill:url(#linear-gradient-4);}.cls-5{fill:url(#linear-gradient-5);}</style><linearGradient id="linear-gradient" x1="1404.72" y1="492" x2="-176.97" y2="492" gradientUnits="userSpaceOnUse"><stop offset="0.2" stop-color="#00feb8"/><stop offset="0.9" stop-color="#00c2ff"/></linearGradient><linearGradient id="linear-gradient-2" x1="1390.51" y1="601.8" x2="-175.18" y2="601.8" xlink:href="#linear-gradient"/><linearGradient id="linear-gradient-3" x1="1390.51" y1="471.26" x2="-175.18" y2="471.26" xlink:href="#linear-gradient"/><linearGradient id="linear-gradient-4" x1="1390.51" y1="393.2" x2="-175.18" y2="393.2" xlink:href="#linear-gradient"/><linearGradient id="linear-gradient-5" x1="1390.51" y1="393.2" x2="-175.18" y2="393.2" xlink:href="#linear-gradient"/></defs><g id="Layer_2" data-name="Layer 2"><g id="Layer_4" data-name="Layer 4"><path class="cls-1" d="M828.66,817.11C930,727.32,971,595.2,971,474.62V461.79C971,251.42,844.05,0,488.73,0,137.25,0,0,251.42,0,461.79v12.83C0,686.27,137.25,933.84,488.73,933.84c60.29,0,114.16-7.69,161.63-20.52,53.21,34,177.1,61.19,252.92,70.18a71.75,71.75,0,0,0,63.29-24.86h0c36.15-42.77,11.4-108.54-44-117C885.87,836,852.36,829.27,828.66,817.11ZM707.93,731.85c-6.66,5.41-13.62,11.2-21.13,15.45-102.09,57.69-198-1.26-198-1.26-2.06-1.25-10.88,4.7-12.66,5.67a126.68,126.68,0,0,1-16.54,7.69c-29.34,10.82-62,14.22-93,11.63-30.83-2.56-61.64-11.42-87.8-28.23-51.3-32.95-92.09-92.57-98.26-153.9-5.94-58.94,22-124,64.49-166.14L198,366.91c-32-38-34.92-58-34.92-58-9.51-36.76,3.83-80.68,29.87-108.15,23.68-25,61.49-35.89,95.16-31.63,13.92,1.75,27.78,4.85,40.18,11.59,20,10.85,35.74,28.56,51.76,44.45,16.44,16.32,32.56,33,49,49.32,2.81-1.49,5.9-2.68,8.74-3.86,3.68-1.53,7.43-2.9,11.24-4.08a129.18,129.18,0,0,1,21.76-4.78,143.53,143.53,0,0,1,43.15,1c1.91.33,3.8.71,5.68,1.11a160.14,160.14,0,0,1,26.29,8.11c.7.29,1.4.58,2.08.9,16.49-16.11,32.7-32.5,49.21-48.57,16.17-15.74,32.08-33.3,52.18-44,12.48-6.61,26.36-9.59,40.28-11.2,33.72-3.92,71.42,7.36,94.86,32.57,25.76,27.72,38.67,71.75,28.82,108.42,0,0-3.12,19.91-35.48,57.65L729.7,424c25.33,28.49,46.14,63.17,56.76,99.35,8.91,30.43,9.81,62.73,1.47,93.4-7,25.74-19.94,49.53-36.24,70.55A274.56,274.56,0,0,1,707.93,731.85Z"/><path class="cls-2" d="M425,546c6.38,0,12.77.17,19.15-.06,4.5-.17,6.18,1.62,6.05,6.07q-.32,10.37,0,20.74c.32,10.37,5.63,15.83,15.88,16q22.33.32,44.68,0c9.75-.15,15.21-5.58,15.67-15.43.33-6.9.31-13.83.06-20.74-.16-4.64,1.19-6.75,6.25-6.64,12.76.26,25.54-.1,38.3.29,2,.06,5.61,2.58,5.75,4.19,2.68,32.22-3.46,61.7-29.07,84-26.27,22.88-56.59,29.18-89.32,17.5s-52.13-35.84-57.76-70.23c-1.58-9.63-.86-19.62-1.43-29.44-.29-5,1.95-6.49,6.62-6.31C412.19,546.2,418.58,546,425,546Z"/><path class="cls-3" d="M487.84,512.4c-19.14,0-38.27-.18-57.4.11-5.88.09-7.73-1.79-7.83-7.74-.26-15.14,1.28-29.68,9.38-42.95a65.7,65.7,0,0,1,122,32.87c.32,17.72.32,17.72-17.51,17.72Z"/><path class="cls-4" d="M373.11,392.68a26.21,26.21,0,0,1,27.13-26.28,26.81,26.81,0,1,1-1,53.61C384.16,419.71,372.91,408,373.11,392.68Z"/><path class="cls-5" d="M575.77,420c-15.43-.67-26.29-12.88-25.53-28.7A26.33,26.33,0,0,1,578,366.41,26.81,26.81,0,1,1,575.77,420Z"/></g></g></svg>