<svg xmlns="http://www.w3.org/2000/svg" xmlns:xlink="http://www.w3.org/1999/xlink" viewBox="0 0 1781.79 322.94"><defs><style>.cls-1{fill:url(#linear-gradient);}.cls-2{fill:url(#linear-gradient-2);}.cls-3{fill:url(#linear-gradient-3);}.cls-4{fill:url(#linear-gradient-4);}.cls-5{fill:url(#linear-gradient-5);}.cls-6{fill:url(#linear-gradient-6);}.cls-7{fill:url(#linear-gradient-7);}.cls-8{fill:url(#linear-gradient-8);}.cls-9{fill:url(#linear-gradient-9);}.cls-10{fill:url(#linear-gradient-10);}.cls-11{fill:url(#linear-gradient-11);}.cls-12{fill:url(#linear-gradient-12);}.cls-13{fill:url(#linear-gradient-13);}.cls-14{fill:url(#linear-gradient-14);}.cls-15{fill:url(#linear-gradient-15);}.cls-16{fill:url(#linear-gradient-16);}.cls-17{fill:url(#linear-gradient-17);}.cls-18{fill:url(#linear-gradient-18);}</style><linearGradient id="linear-gradient" x1="341.74" y1="162.89" x2="471.7" y2="162.89" gradientUnits="userSpaceOnUse"><stop offset="0.2" stop-color="#00feb8"/><stop offset="0.9" stop-color="#00c2ff"/></linearGradient><linearGradient id="linear-gradient-2" x1="461.55" y1="161.07" x2="591.91" y2="161.07" xlink:href="#linear-gradient"/><linearGradient id="linear-gradient-3" x1="840.45" y1="127.77" x2="623.99" y2="127.77" xlink:href="#linear-gradient"/><linearGradient id="linear-gradient-4" x1="874.15" y1="267.67" x2="623.99" y2="267.67" xlink:href="#linear-gradient"/><linearGradient id="linear-gradient-5" x1="874.15" y1="51.21" x2="693.84" y2="51.21" xlink:href="#linear-gradient"/><linearGradient id="linear-gradient-6" x1="906.23" y1="113.76" x2="985.83" y2="113.76" xlink:href="#linear-gradient"/><linearGradient id="linear-gradient-7" x1="928.97" y1="216.1" x2="1194.57" y2="216.1" xlink:href="#linear-gradient"/><linearGradient id="linear-gradient-8" x1="1137.31" y1="114.57" x2="1217.31" y2="114.57" xlink:href="#linear-gradient"/><linearGradient id="linear-gradient-9" x1="1283.09" y1="127.77" x2="1499.55" y2="127.77" xlink:href="#linear-gradient"/><linearGradient id="linear-gradient-10" x1="1249.38" y1="267.67" x2="1499.55" y2="267.67" xlink:href="#linear-gradient"/><linearGradient id="linear-gradient-11" x1="1249.38" y1="51.21" x2="1429.7" y2="51.21" xlink:href="#linear-gradient"/><linearGradient id="linear-gradient-12" x1="1763.11" y1="162.89" x2="1531.62" y2="162.89" xlink:href="#linear-gradient"/><linearGradient id="linear-gradient-13" x1="1720.87" y1="274.58" x2="1781.79" y2="274.58" xlink:href="#linear-gradient"/><linearGradient id="linear-gradient-14" x1="461.01" y1="161.47" x2="-58.08" y2="161.47" xlink:href="#linear-gradient"/><linearGradient id="linear-gradient-15" x1="456.35" y1="197.5" x2="-57.49" y2="197.5" xlink:href="#linear-gradient"/><linearGradient id="linear-gradient-16" x1="456.35" y1="154.66" x2="-57.49" y2="154.66" xlink:href="#linear-gradient"/><linearGradient id="linear-gradient-17" x1="456.35" y1="129.05" x2="-57.49" y2="129.05" xlink:href="#linear-gradient"/><linearGradient id="linear-gradient-18" x1="456.35" y1="129.04" x2="-57.49" y2="129.04" xlink:href="#linear-gradient"/></defs><g id="Layer_2" data-name="Layer 2"><g id="Layer_3" data-name="Layer 3"><path class="cls-1" d="M390.07,26.44c8.12,5.69,12.19,13.4,12.59,23.15v113.3q0,28.63,14.62,51.18c11.78,18.27,26.81,28.42,45.08,30.05A37.59,37.59,0,0,0,453.83,260a34.46,34.46,0,0,0-.81,17.87A49.21,49.21,0,0,0,456.27,288,41.94,41.94,0,0,0,471.7,305h-4.87c-20.31,0-39-5.28-56.86-15.44a137.64,137.64,0,0,1-43.45-41.83,153.8,153.8,0,0,1-24.78-84.88V49.18c.82-7.71,3.66-14.21,8.94-19.49a29.47,29.47,0,0,1,21.52-8.94A28.45,28.45,0,0,1,390.07,26.44Z"/><path class="cls-2" d="M583.38,30.1a28.16,28.16,0,0,1,8.53,20.71V162.89c0,22.34-4.06,43.46-13,63.36a136,136,0,0,1-35.74,49.14,118.09,118.09,0,0,1-45.08,25.18,1.4,1.4,0,0,0-.81.4c-1.63,0-3.25.41-4.88.41a29.79,29.79,0,0,1-19.08-6.9,32.91,32.91,0,0,1-11-18.28,32.4,32.4,0,0,1-.81-5.68A29,29,0,0,1,464,258.74c3.65-8.12,9.34-13.81,17.46-16.65a60.67,60.67,0,0,0,25.18-15.43C522.87,210.41,531,188.89,531,162.89V56.09c0-4.47.4-7.72.4-9.34a31.43,31.43,0,0,1,6.9-15.44c6.1-7.31,13.81-10.56,23.15-10.56C570.39,20.75,577.7,23.6,583.38,30.1Z"/><path class="cls-3" d="M698.71,20.75a36,36,0,0,0-10.56,13.81,46.75,46.75,0,0,0-3.25,16.65v81.23H810c9.34,0,17,3.25,23.15,10.55a29.43,29.43,0,0,1,7.31,19.9c0,9.34-3.66,17.06-11,23.56a30.84,30.84,0,0,1-19.49,6.9H684.9v12.19c0,9.34-4.06,17.05-11.37,22.74-5.68,4.06-11.77,6.5-19.09,6.5-10.55,0-18.68-4.47-24.77-12.59A34,34,0,0,1,624,205.94V50.81a27.35,27.35,0,0,1,7.31-19.09c6.09-7.31,13.8-11,22.74-11h44.67Z"/><path class="cls-4" d="M684.9,244.12h160c8.13,0,15,3.25,20.71,9.34a29.1,29.1,0,0,1,8.53,21.12A30.51,30.51,0,0,1,843.7,305H654.44c-8.12,0-15.43-3.25-21.93-8.94A30.75,30.75,0,0,1,624,274.58V230.31c8.12,8.93,18.27,13.81,30.45,13.81Z"/><path class="cls-5" d="M843.29,20.75h.81A26.94,26.94,0,0,1,864,28.88c6.9,5.68,10.15,13.4,10.15,22.33,0,7.72-2.43,14.62-8.12,20.31-5.68,6.5-12.59,9.74-21.52,10.15h-121c-9.34,0-17.05-4.06-23.14-11.37a32.77,32.77,0,0,1-6.5-19.09,32.69,32.69,0,0,1,5.28-17.46c5.68-8.53,13.81-13,23.55-13Z"/><path class="cls-6" d="M936.69,20.75a28.69,28.69,0,0,1,19.49,6.91,27.57,27.57,0,0,1,10.56,19.09l18.68,126.3a11.14,11.14,0,0,1,.41,3.65,27.15,27.15,0,0,1-5.28,16.65c-4.88,7.31-11.78,11.38-20.72,13-1.62,0-3.24.41-4.87.41a32.81,32.81,0,0,1-19.09-6.5A30.21,30.21,0,0,1,925.31,182L906.63,55.68v-.41c0-1.62-.4-2.84-.4-4.06A32.57,32.57,0,0,1,910.69,35a28.06,28.06,0,0,1,21.12-13.81h.82A15.07,15.07,0,0,1,936.69,20.75Z"/><path class="cls-7" d="M1063,129.59a23.41,23.41,0,0,1,13.81,4.47,25.4,25.4,0,0,1,7.71,6.09,29.94,29.94,0,0,1,5.69,6.5l34.11,41.42q8.54,10.37,13.4,15.84c5.69,4.88,10.16,8.53,13.41,10.16a56.19,56.19,0,0,0,11,3.24c2.44,0,4.47.41,6.09.41a44.24,44.24,0,0,0,10.56-1.62c6.09-1.63,11.37-4.06,15.84-8.13l-10.15,67.83v.81a37,37,0,0,1-4.88,12.59,35.4,35.4,0,0,1-14.21,11.37,31,31,0,0,1-11,2h-4.46a35.93,35.93,0,0,1-18.28-9.34c-.81-.81-2.84-3.25-6.09-6.91l-64.17-78.78L995.17,289.2l-4.06,4.06c-4.07,4.47-9.35,7.31-15.84,8.93-1.63,0-3.25.41-5.69.41h-1.22A43.66,43.66,0,0,1,958.21,301a32.86,32.86,0,0,1-8.12-4.87,34.88,34.88,0,0,1-8.53-10.56c-.81-2.44-1.22-4.46-2-6.9a3,3,0,0,0-.41-2v-.81L929,206.35a40.57,40.57,0,0,0,11.37,6.9A46.51,46.51,0,0,0,955,216.1c2.44,0,4.47-.41,6.09-.41q4.88-1.22,8.53-2.44a52.66,52.66,0,0,0,15-9.74c2.43-2.44,5.68-5.69,9.75-10.56s6.9-8.53,9.34-11l29.64-36.55c2.44-2.84,4.47-4.87,5.28-5.68a21.55,21.55,0,0,1,5.69-4.88,26.94,26.94,0,0,1,13.4-4.87,10,10,0,0,1,3.25-.41h2Z"/><path class="cls-8" d="M1190.92,21.16h.81c8.93,1.22,15.83,5.69,20.71,13.81a29.27,29.27,0,0,1,4.87,16.24,15.43,15.43,0,0,1-.4,4.06v.41l-18.69,126.71v.81a29.33,29.33,0,0,1-7.71,15.43c-5.69,6.5-13.4,9.75-22.34,9.75-1.62,0-2.84-.41-4.47-.41a29.6,29.6,0,0,1-19.49-11c-4.47-5.69-6.9-11.78-6.9-18.68,0-.82.4-2,.4-2.84L1156.8,46.75a30,30,0,0,1,10.56-18.69,29.12,29.12,0,0,1,19.49-7.31A12.45,12.45,0,0,1,1190.92,21.16Z"/><path class="cls-9" d="M1424.83,20.75a36.1,36.1,0,0,1,10.56,13.81,47,47,0,0,1,3.24,16.65v81.23H1313.55c-9.34,0-17.06,3.25-23.15,10.55a29.43,29.43,0,0,0-7.31,19.9c0,9.34,3.66,17.06,11,23.56a30.84,30.84,0,0,0,19.49,6.9h125.08v12.19c0,9.34,4.06,17.05,11.38,22.74,5.68,4.06,11.77,6.5,19.08,6.5,10.56,0,18.68-4.47,24.78-12.59a34.05,34.05,0,0,0,5.68-16.25V50.81a27.35,27.35,0,0,0-7.31-19.09c-6.09-7.31-13.81-11-22.74-11h-44.67Z"/><path class="cls-10" d="M1438.63,244.12h-160c-8.12,0-15,3.25-20.71,9.34a29.14,29.14,0,0,0-8.53,21.12A30.52,30.52,0,0,0,1279.84,305h189.25c8.13,0,15.43-3.25,21.93-8.94a30.72,30.72,0,0,0,8.53-21.52V230.31c-8.12,8.93-18.27,13.81-30.46,13.81Z"/><path class="cls-11" d="M1280.25,20.75h-.81a26.93,26.93,0,0,0-19.9,8.13c-6.91,5.68-10.16,13.4-10.16,22.33a27.56,27.56,0,0,0,8.13,20.31c5.68,6.5,12.59,9.74,21.52,10.15h121c9.34,0,17.06-4.06,23.15-11.37a32.77,32.77,0,0,0,6.5-19.09,32.69,32.69,0,0,0-5.28-17.46c-5.69-8.53-13.81-13-23.55-13Z"/><path class="cls-12" d="M1674.58,20.75h6.9c24,1.22,43.86,11,59.7,28.84q21.93,24.36,21.93,57.26c0,22.74-7.72,42.64-24,59.7A91.25,91.25,0,0,1,1716,184l42.24,51.17a37.76,37.76,0,0,0-6.91-.4c-10.56,0-19.49,3.25-27.21,10.56a39,39,0,0,0-13,28.42l-63.76-77.56-.41-.41a8.54,8.54,0,0,0-1.62-2.44h-52.8v81.23c0,8.12-2.43,15-8.12,20.71-5.69,6.5-13.4,9.75-22.34,9.75-8.12,0-15.43-3.25-21.93-8.94a30.76,30.76,0,0,1-8.53-21.52V118.22a43.91,43.91,0,0,0,13,9.75c5.69,2.44,11.37,4.06,17.46,4.06l14.22.41h101.93a26.92,26.92,0,0,0,13.81-4.88,24.68,24.68,0,0,0,10.15-20.71c0-7.71-2.84-14.21-8.93-19.09a21.13,21.13,0,0,0-15.43-6.09h-85.29V93.45c0,8.53-3.25,15.84-10.15,21.93a30,30,0,0,1-20.31,7.72,30.49,30.49,0,0,1-30.46-28.84V50.81a29.15,29.15,0,0,1,7.31-19.5,28.26,28.26,0,0,1,22.75-10.56h112.9Z"/><path class="cls-13" d="M1770.83,251a23.8,23.8,0,0,1,5.68,6.5c3.66,4.87,5.28,10.56,5.28,17.06,0,9.34-3.65,17.05-11.37,23.55a29,29,0,0,1-19.09,6.91h-3.25a34.52,34.52,0,0,1-15.83-6.91,39.14,39.14,0,0,1-8.53-10.15,35.8,35.8,0,0,1-2.85-13.4,30,30,0,0,1,8.94-21.93,30.72,30.72,0,0,1,21.52-8.53A28.76,28.76,0,0,1,1770.83,251Z"/><path class="cls-14" d="M272,268.17c33.25-29.47,46.73-72.83,46.73-112.41v-4.21C318.69,82.51,277,0,160.39,0,45.05,0,0,82.51,0,151.55v4.21c0,69.47,45.05,150.72,160.39,150.72a202.87,202.87,0,0,0,53.05-6.74c17.46,11.18,58.12,20.08,83,23a23.53,23.53,0,0,0,20.77-8.16h0a23.5,23.5,0,0,0-14.43-38.4C290.73,274.36,279.73,272.16,272,268.17Zm-39.63-28a50.66,50.66,0,0,1-6.93,5.07c-33.51,18.94-65-.41-65-.41-.67-.41-3.57,1.55-4.15,1.86a41.83,41.83,0,0,1-5.43,2.53A72,72,0,0,1,120.29,253a63.08,63.08,0,0,1-28.82-9.26C74.63,233,61.25,213.4,59.22,193.27c-1.95-19.34,7.24-40.7,21.17-54.52L65,120.42c-10.5-12.49-11.46-19-11.46-19-3.12-12.07,1.26-26.48,9.8-35.5C71.1,57.7,83.5,54.11,94.56,55.51a37,37,0,0,1,13.18,3.81c6.56,3.56,11.73,9.37,17,14.59s10.68,10.82,16.07,16.18c.92-.49,1.94-.88,2.87-1.27,1.21-.5,2.44-.95,3.69-1.34a43.28,43.28,0,0,1,7.14-1.56,47,47,0,0,1,14.16.34c.63.11,1.24.23,1.86.36a51,51,0,0,1,8.63,2.67l.68.29c5.41-5.29,10.73-10.67,16.15-15.94s10.53-10.93,17.13-14.43a37.06,37.06,0,0,1,13.22-3.68c11.07-1.28,23.44,2.42,31.13,10.69,8.45,9.1,12.69,23.55,9.46,35.59,0,0-1,6.53-11.65,18.92l-15.79,18.41c8.31,9.35,15.14,20.74,18.63,32.61a56.4,56.4,0,0,1,.48,30.65,66.68,66.68,0,0,1-11.89,23.16A90.34,90.34,0,0,1,232.33,240.18Z"/><path class="cls-15" d="M139.47,179.2c2.09,0,4.19.05,6.28,0,1.48-.06,2,.53,2,2q-.11,3.41,0,6.81c.1,3.4,1.85,5.19,5.21,5.24q7.33.1,14.66,0c3.2-.05,5-1.83,5.15-5.07.1-2.26.1-4.54,0-6.8-.06-1.53.38-2.22,2.05-2.18,4.18.08,8.38,0,12.56.09.67,0,1.85.85,1.89,1.38.88,10.57-1.13,20.25-9.54,27.57-8.62,7.51-18.57,9.58-29.31,5.75s-17.11-11.77-19-23.05c-.51-3.16-.28-6.44-.47-9.66-.09-1.65.64-2.14,2.17-2.07C135.28,179.26,137.37,179.2,139.47,179.2Z"/><path class="cls-16" d="M160.1,168.16c-6.28,0-12.56-.06-18.83,0-1.93,0-2.54-.59-2.58-2.54-.08-5,.43-9.74,3.08-14.1a21.57,21.57,0,0,1,40,10.79c.1,5.82.1,5.82-5.75,5.82Z"/><path class="cls-17" d="M122.45,128.87a8.6,8.6,0,0,1,8.91-8.62,8.8,8.8,0,1,1-.33,17.59A8.64,8.64,0,0,1,122.45,128.87Z"/><path class="cls-18" d="M189,137.84a8.8,8.8,0,0,1,.72-17.59,8.8,8.8,0,1,1-.72,17.59Z"/></g></g></svg>